<svg width="8" height="10" viewBox="0 0 8 10" fill="none" xmlns="http://www.w3.org/2000/svg">
<g opacity="0.4">
<path fill-rule="evenodd" clip-rule="evenodd" d="M3.39681 9.7465C3.55907 9.91016 3.77333 10 4.00301 10C4.23213 10 4.44753 9.91016 4.60865 9.7465L7.26375 6.98723C7.48715 6.7612 7.48715 6.39555 7.26375 6.16952C7.04092 5.94349 6.67925 5.94349 6.45585 6.16952L4.00301 8.72451L1.54961 6.16952C1.32621 5.94349 0.965109 5.94349 0.741708 6.16952C0.518308 6.39555 0.518308 6.7612 0.741708 6.98723L3.39681 9.7465Z" fill="#FF0000"/>
<path fill-rule="evenodd" clip-rule="evenodd" d="M3.39681 9.7465C3.55907 9.91016 3.77333 10 4.00301 10C4.23213 10 4.44753 9.91016 4.60865 9.7465L7.26375 6.98723C7.48715 6.7612 7.48715 6.39555 7.26375 6.16952C7.04092 5.94349 6.67925 5.94349 6.45585 6.16952L4.00301 8.72451L1.54961 6.16952C1.32621 5.94349 0.965109 5.94349 0.741708 6.16952C0.518308 6.39555 0.518308 6.7612 0.741708 6.98723L3.39681 9.7465Z" fill="#0B1739"/>
</g>
<path fill-rule="evenodd" clip-rule="evenodd" d="M4.60796 0.253496C4.44569 0.0898395 4.23143 2.7968e-07 4.00175 2.9976e-07C3.77263 3.1979e-07 3.55723 0.0898396 3.39611 0.253496L0.74101 3.01277C0.51761 3.2388 0.51761 3.60445 0.74101 3.83048C0.96384 4.05651 1.32551 4.05651 1.54891 3.83048L4.00175 1.27549L6.45515 3.83048C6.67855 4.05651 7.03965 4.05651 7.26305 3.83048C7.48645 3.60445 7.48645 3.2388 7.26305 3.01277L4.60796 0.253496Z" fill="#3EB57C"/>
</svg>
